<svg width="108" height="120" viewBox="0 0 108 120" fill="none" xmlns="http://www.w3.org/2000/svg">
<path d="M28.7541 79.8365L24.3398 80.8313C21.6481 81.5078 19.3219 81.8447 17.4078 82.2502L14.785 82.783L12.6604 83.1374C11.4143 83.3639 10.4657 83.5644 9.75364 83.7462C6.90104 84.4569 7.84993 84.8918 7.92752 85.5154C8.00512 86.139 7.22451 86.7331 10.2891 86.7801C11.0503 86.7819 12.0544 86.7545 13.3679 86.68L15.5886 86.5504L18.3108 86.188C20.2879 85.9177 22.7217 85.6147 25.5148 84.9826L30.07 84.0126C31.7096 83.6181 33.4102 83.1176 35.2746 82.627C43.9536 80.1746 52.3784 76.8983 60.4339 72.8426C69.1544 68.4342 77.3792 63.107 84.9682 56.9516C91.025 52.0936 96.5801 46.6414 101.55 40.6765C103.053 38.9107 104.455 37.0619 105.75 35.1388C106.686 33.7873 107.138 33.0038 107.028 32.9259C106.417 32.4182 97.5509 43.8872 82.9149 54.5662C75.2464 60.2458 67.0465 65.1705 58.4298 69.2715C50.4963 73.0308 42.26 76.115 33.8084 78.4911L28.7981 79.8336" fill="#FFFFF5"/>
<path d="M8.36062 80.4856C10.0341 78.2472 11.4824 76.2034 12.6425 74.4873C15.0162 70.9873 16.2731 68.6636 15.8696 68.36C15.466 68.0564 13.4823 69.8052 10.5841 72.9177C9.13806 74.4687 7.47524 76.3463 5.65512 78.4718C4.74648 79.5566 3.84557 80.6035 2.82078 81.8895C2.14597 82.6957 1.70477 83.6713 1.54501 84.7105C1.4647 85.4533 1.60647 86.2034 1.95243 86.8657C2.29193 87.4962 2.76577 88.0444 3.34044 88.4717C4.14499 89.0156 4.98708 89.5018 5.86039 89.9266C6.60155 90.3545 7.3855 90.7083 8.13605 91.071C9.64327 91.7859 11.1036 92.4597 12.5144 93.0483C15.3403 94.2422 17.9309 95.1591 20.1358 95.8392C24.5518 97.1888 27.3768 97.5774 27.5016 97.1412C27.6263 96.7051 25.0493 95.4713 20.9345 93.5756C18.8718 92.6247 16.4731 91.5222 13.76 90.1817C12.4239 89.5373 11.0258 88.8289 9.5915 88.0855L7.425 86.9476C6.75196 86.6152 6.1012 86.2395 5.4768 85.8228C5.07042 85.4753 5.15347 85.5515 5.14092 85.3043C5.23946 84.8162 5.45485 84.3592 5.76861 83.9725C6.66711 82.7831 7.54726 81.6254 8.36345 80.5296" fill="#FFFFF5"/>
</svg>
