<svg width="1440" height="356" viewBox="0 0 1440 356" fill="none" xmlns="http://www.w3.org/2000/svg">
<g clip-path="url(#clip0_344_6165)">
<path d="M1445.45 5.16284C1297.69 -15.9596 1174.38 37.3803 1037.22 103.744C1036.65 104.02 1036.08 104.294 1035.51 104.573C1035.03 104.802 1034.56 105.03 1034.09 105.258C1033.81 105.396 1033.53 105.53 1033.25 105.668C1032.48 106.038 1031.72 106.41 1030.95 106.787C1030.28 107.109 1029.6 107.435 1028.93 107.761C1028.31 108.06 1027.7 108.358 1027.1 108.654C1026.38 108.996 1025.68 109.339 1024.97 109.685C1024.81 109.762 1024.65 109.843 1024.48 109.921C1023.72 110.293 1022.96 110.665 1022.19 111.038C1020.95 111.643 1019.7 112.247 1018.46 112.856C1016.91 113.604 1015.36 114.359 1013.82 115.112C1013.75 115.146 1013.69 115.18 1013.62 115.21C1011.59 116.201 1009.55 117.191 1007.51 118.182C1005.75 119.042 1003.98 119.905 1002.22 120.768C1001.48 121.124 1000.75 121.481 1000.02 121.836C997.013 123.301 993.998 124.772 990.969 126.246C990.542 126.451 990.126 126.659 989.698 126.865C986.689 128.328 983.678 129.793 980.655 131.261C980.52 131.328 980.381 131.395 980.246 131.458C978.053 132.526 975.846 133.595 973.643 134.663C971.751 135.576 969.859 136.494 967.963 137.41C967.896 137.443 967.824 137.477 967.757 137.511C967.751 137.511 967.748 137.514 967.742 137.514C966.489 138.122 965.237 138.727 963.979 139.335C963.144 139.734 962.304 140.141 961.468 140.543C960.403 141.053 959.342 141.568 958.271 142.082C956.717 142.827 955.166 143.573 953.612 144.318C953.514 144.362 953.424 144.406 953.333 144.449C951.144 145.501 948.945 146.552 946.748 147.6C943.584 149.111 940.412 150.622 937.224 152.13C937.157 152.16 937.089 152.194 937.022 152.228C932.64 154.303 928.234 156.376 923.809 158.448C922.618 159.005 921.428 159.563 920.231 160.117C915.683 162.244 911.102 164.362 906.504 166.478C902.972 168.1 899.428 169.719 895.868 171.331C891.874 173.149 887.856 174.958 883.819 176.759C876.465 180.047 869.046 183.311 861.563 186.55C859.459 187.456 857.363 188.363 855.255 189.259C845.194 193.568 835.013 197.82 824.693 201.999C823.271 202.58 821.846 203.154 820.421 203.725C820.378 203.741 820.335 203.758 820.292 203.779C812.751 206.807 805.138 209.801 797.449 212.749C789.398 215.836 781.258 218.871 773.031 221.854C765.692 224.517 758.274 227.134 750.788 229.699C740.449 233.244 729.975 236.692 719.342 240.031C712.579 242.156 705.763 244.236 698.874 246.267C693.923 247.728 688.935 249.165 683.923 250.58C679.243 251.893 674.539 253.186 669.806 254.456C665.222 255.681 660.615 256.887 655.978 258.069C651.354 259.249 646.699 260.404 642.019 261.537C637.238 262.693 632.415 263.827 627.566 264.93C622.493 266.09 617.381 267.22 612.231 268.32C607.815 269.267 603.366 270.19 598.892 271.09C597.791 271.314 596.689 271.526 595.594 271.737C588.883 273.017 582.231 274.07 575.631 274.906C566.678 276.04 557.831 276.776 549.092 277.141C535.723 277.693 522.594 277.376 509.698 276.284C461.228 272.18 415.956 257.102 373.373 236.007C373.101 235.876 372.834 235.745 372.568 235.607C372.497 235.577 372.429 235.54 372.362 235.507C371.627 235.145 370.89 234.775 370.161 234.405C369.797 234.224 369.435 234.039 369.077 233.854C368.226 233.425 367.374 232.991 366.529 232.557C365.953 232.262 365.378 231.964 364.802 231.664C363.666 231.077 362.529 230.482 361.391 229.884C359.903 229.099 358.418 228.306 356.933 227.509C355.202 226.576 353.475 225.633 351.754 224.685C350.679 224.091 349.607 223.494 348.536 222.892C346.71 221.871 344.886 220.836 343.073 219.796C342.043 219.205 341.008 218.609 339.983 218.012C338.351 217.065 336.731 216.111 335.111 215.15C334.131 214.569 333.148 213.984 332.166 213.393C331.997 213.293 331.823 213.193 331.654 213.089C330.319 212.285 328.984 211.477 327.649 210.663C326.43 209.918 325.211 209.169 323.993 208.417C323.968 208.4 323.94 208.383 323.916 208.366C322.783 207.668 321.653 206.962 320.526 206.254C319.519 205.625 318.518 204.994 317.516 204.363C317.091 204.094 316.671 203.822 316.245 203.553C315.341 202.979 314.441 202.401 313.538 201.824C313.373 201.716 313.204 201.608 313.033 201.501C312.617 201.233 312.203 200.968 311.79 200.695C310.978 200.175 310.17 199.651 309.364 199.124C308.424 198.516 307.491 197.905 306.559 197.293C304.174 195.724 301.798 194.15 299.43 192.561C298.534 191.96 297.639 191.358 296.751 190.754C294.773 189.414 292.798 188.07 290.829 186.72C289.757 185.982 288.688 185.242 287.619 184.496C285.506 183.033 283.397 181.559 281.293 180.077C281.269 180.06 281.239 180.04 281.216 180.02C279.073 178.512 276.941 176.997 274.813 175.473C273.638 174.633 272.468 173.793 271.296 172.951C270.392 172.296 269.488 171.643 268.594 170.988C268.588 170.988 268.588 170.986 268.583 170.982C266.663 169.591 264.754 168.198 262.853 166.801C262.2 166.324 261.551 165.846 260.903 165.37C259.824 164.577 258.756 163.785 257.683 162.992C256.153 161.859 254.631 160.725 253.112 159.59C252.827 159.379 252.546 159.167 252.266 158.955C251.222 158.176 250.176 157.397 249.137 156.615C248.014 155.768 246.887 154.922 245.766 154.072C245.301 153.719 244.832 153.366 244.363 153.011C243.904 152.662 243.444 152.311 242.979 151.962C242.235 151.395 241.485 150.827 240.741 150.259C240.146 149.806 239.556 149.357 238.961 148.904C238.478 148.534 237.994 148.164 237.51 147.794C237.413 147.72 237.311 147.643 237.216 147.569C236.858 147.294 236.499 147.022 236.141 146.746C235.609 146.344 235.082 145.938 234.559 145.534C233.931 145.053 233.303 144.57 232.678 144.09C232.069 143.624 231.459 143.154 230.85 142.686C230.813 142.656 230.773 142.626 230.739 142.595C230.188 142.178 229.646 141.759 229.11 141.34C141.529 73.7696 65.6419 6.20711 -5.44687 5.36336C-5.89687 5.35685 -6.34687 5.35295 -6.79688 5.35295" stroke="#1E0375" stroke-width="2" stroke-miterlimit="10"/>
<path d="M-6.79492 14.7004C152.141 19.2395 329.267 321.667 601.794 268.297C967.449 196.687 1155.22 -23.7905 1446.8 15.9165" stroke="#260978" stroke-width="2" stroke-miterlimit="10"/>
<path d="M-6.79492 22.9804C155.861 32.0599 332.169 316.29 604.699 264.436C964.271 196.021 1146.77 -12.7032 1446.8 25.4166" stroke="#2E107B" stroke-width="2" stroke-miterlimit="10"/>
<path d="M-6.79492 30.2838C159.579 43.9036 335.055 309.921 607.609 259.599C961.071 194.339 1138.31 -2.59376 1446.8 33.9362" stroke="#37167D" stroke-width="2" stroke-miterlimit="10"/>
<path d="M-6.79492 36.957C163.298 55.1172 337.926 302.904 610.511 254.131C957.84 191.988 1129.86 6.88672 1446.8 41.8268" stroke="#3F1C80" stroke-width="2" stroke-miterlimit="10"/>
<path d="M-6.79492 43.2397C167.016 65.9402 340.781 295.477 613.416 248.276C954.591 189.208 1121.4 15.9741 1446.8 49.3269" stroke="#472283" stroke-width="2" stroke-miterlimit="10"/>
<path d="M-6.79492 48.8072C170.736 76.0468 343.62 287.316 616.32 241.703C951.317 185.673 1112.95 24.3463 1446.8 56.1132" stroke="#4F2986" stroke-width="2" stroke-miterlimit="10"/>
<path d="M1445.45 62.1498C1429.55 60.7696 1414.05 59.7761 1398.92 59.1433C1390.48 58.7866 1382.15 58.5431 1373.94 58.4103C1255.31 56.4702 1159.04 76.8399 1066.31 105.053C1066.11 105.115 1065.9 105.175 1065.71 105.238C1065.68 105.245 1065.65 105.251 1065.62 105.266C1065.6 105.268 1065.58 105.272 1065.57 105.283C1065.38 105.332 1065.2 105.389 1065.02 105.447C1064.91 105.477 1064.8 105.513 1064.68 105.547C1064.63 105.564 1064.57 105.581 1064.52 105.598C1064.39 105.638 1064.26 105.675 1064.13 105.719C1063.94 105.772 1063.75 105.832 1063.57 105.889C1063.53 105.904 1063.48 105.913 1063.44 105.927C1063.25 105.984 1063.06 106.044 1062.87 106.104C1061.91 106.393 1060.96 106.689 1060.01 106.982C1059.98 106.991 1059.95 107.001 1059.92 107.012C1058.65 107.401 1057.39 107.794 1056.12 108.188C1054.38 108.728 1052.65 109.272 1050.91 109.817C1048.82 110.471 1046.74 111.129 1044.66 111.79C1042.04 112.624 1039.42 113.464 1036.79 114.313C1034.13 115.169 1031.47 116.033 1028.8 116.9C1028.4 117.034 1027.99 117.168 1027.58 117.3C1023.95 118.491 1020.3 119.69 1016.66 120.9C1015.27 121.363 1013.87 121.827 1012.48 122.289C1011.09 122.757 1009.69 123.224 1008.29 123.69C1005.05 124.775 1001.82 125.867 998.582 126.965C997.613 127.29 996.649 127.616 995.683 127.942C992.126 129.151 988.56 130.367 984.994 131.586C984.649 131.703 984.308 131.822 983.963 131.939C981.006 132.949 978.049 133.968 975.083 134.988C972.729 135.798 970.378 136.607 968.016 137.423C967.926 137.453 967.834 137.487 967.742 137.514C966.188 138.055 964.637 138.589 963.077 139.126C962.031 139.488 960.979 139.856 959.923 140.218C958.554 140.692 957.182 141.168 955.809 141.642C953.754 142.354 951.696 143.065 949.631 143.781C946.511 144.863 943.391 145.944 940.262 147.029C935.689 148.615 931.095 150.199 926.492 151.792C920.031 154.021 913.545 156.255 907.028 158.482C898.086 161.54 889.08 164.598 879.994 167.634C867.225 171.906 854.304 176.141 841.181 180.313C825.154 185.41 808.819 190.408 792.111 195.245C776.741 199.698 761.049 204.013 744.975 208.145C731.578 211.59 717.911 214.909 703.944 218.073C692.511 220.662 680.88 223.147 669.019 225.516C659.329 227.453 649.489 229.307 639.489 231.077C632.809 232.259 626.055 233.401 619.224 234.503C609.345 236.098 599.597 237.38 589.973 238.371C578.083 239.594 566.394 240.373 554.886 240.74C547.689 240.971 540.563 241.042 533.505 240.957C526.238 240.874 519.043 240.629 511.92 240.232C502.689 239.719 493.584 238.952 484.594 237.955C484.579 237.952 484.56 237.948 484.545 237.948C482.049 237.669 479.563 237.374 477.083 237.059C474.838 236.776 472.598 236.478 470.368 236.165C469.924 236.104 469.479 236.04 469.035 235.977C466.853 235.664 464.676 235.343 462.504 235.003C461.276 234.811 460.048 234.617 458.826 234.415C454.946 233.784 451.091 233.112 447.257 232.397C447.077 232.363 446.893 232.33 446.709 232.293C446.468 232.249 446.222 232.202 445.98 232.158C444.752 231.926 443.522 231.692 442.299 231.449C440.22 231.043 438.144 230.624 436.08 230.19C428.903 228.699 421.793 227.07 414.756 225.317C408.894 223.856 403.076 222.307 397.307 220.685C392.258 219.262 387.248 217.776 382.266 216.238C377.792 214.858 373.348 213.431 368.927 211.96C364.851 210.603 360.793 209.212 356.758 207.788C352.943 206.442 349.148 205.065 345.369 203.66C341.709 202.304 338.066 200.917 334.44 199.509C330.851 198.116 327.272 196.695 323.713 195.254C320.115 193.8 316.53 192.326 312.966 190.828C308.73 189.051 304.513 187.244 300.319 185.417C295.667 183.388 291.043 181.33 286.444 179.248C281.734 177.115 277.052 174.958 272.394 172.779C271.123 172.185 269.856 171.59 268.594 170.988C265.869 169.71 263.156 168.419 260.449 167.12C259.588 166.71 258.728 166.297 257.871 165.884C256.523 165.236 255.173 164.585 253.828 163.932C252.233 163.16 250.635 162.384 249.045 161.606C247.817 161.004 246.587 160.402 245.359 159.801C245.151 159.701 244.944 159.596 244.734 159.496C242.636 158.461 240.542 157.427 238.448 156.396C236.751 155.552 235.054 154.71 233.361 153.863C233.156 153.766 232.959 153.665 232.755 153.561C229.714 152.047 226.686 150.529 223.663 149.007C223.059 148.705 222.454 148.399 221.85 148.096C221.289 147.811 220.729 147.53 220.166 147.244C219.199 146.757 218.233 146.27 217.266 145.783C216.525 145.406 215.79 145.034 215.049 144.662C214.508 144.386 213.971 144.113 213.429 143.839C213.092 143.667 212.753 143.496 212.415 143.324C212.274 143.254 212.134 143.184 211.993 143.109C211.978 143.103 211.965 143.096 211.95 143.09C211.926 143.076 211.907 143.065 211.883 143.056C211.877 143.052 211.868 143.05 211.864 143.046C211.622 142.925 211.384 142.803 211.148 142.682C211.056 142.636 210.964 142.589 210.872 142.542C210.48 142.344 210.092 142.146 209.706 141.951C209.151 141.665 208.594 141.383 208.037 141.104C207.617 140.889 207.195 140.675 206.781 140.462C133.151 103.031 64.5244 66.5639 -5.44687 53.9832C-5.89687 53.9037 -6.34687 53.823 -6.79688 53.7436" stroke="#582F88" stroke-width="2" stroke-miterlimit="10"/>
<path d="M-6.79492 58.1407C178.172 94.4597 349.253 269.124 622.133 226.758C944.702 176.677 1096.04 39.293 1446.8 67.8803" stroke="#60358B" stroke-width="2" stroke-miterlimit="10"/>
<path d="M-6.79492 62.0729C181.892 102.936 352.046 259.257 625.037 218.553C941.366 171.388 1087.58 46.0339 1446.8 73.0339" stroke="#683B8E" stroke-width="2" stroke-miterlimit="10"/>
<path d="M-6.79492 65.6329C185.61 111.037 354.827 248.99 627.941 209.974C938.012 165.68 1079.13 52.3999 1446.8 77.8139" stroke="#704291" stroke-width="2" stroke-miterlimit="10"/>
<path d="M-6.79492 68.8998C189.33 118.841 357.593 238.396 630.846 201.099C934.637 159.634 1070.67 58.4701 1446.8 82.293" stroke="#794893" stroke-width="2" stroke-miterlimit="10"/>
<path d="M-6.79492 71.9427C193.048 126.427 360.345 227.551 633.748 192.004C931.249 153.326 1062.21 64.3203 1446.8 86.5573" stroke="#814E96" stroke-width="2" stroke-miterlimit="10"/>
<path d="M-6.79492 74.8372C196.766 133.859 363.086 216.519 636.658 182.758C927.846 146.822 1053.76 70.0195 1446.8 90.6666" stroke="#895599" stroke-width="2" stroke-miterlimit="10"/>
<path d="M-6.79492 77.6302C200.486 141.194 365.813 205.352 639.563 173.411C924.428 140.174 1045.3 75.6198 1446.8 94.6784" stroke="#915B9C" stroke-width="2" stroke-miterlimit="10"/>
<path d="M-6.79492 80.3503C204.204 148.455 368.531 194.07 642.465 163.992C920.994 133.41 1036.85 81.1472 1446.8 98.6173" stroke="#99619F" stroke-width="2" stroke-miterlimit="10"/>
<path d="M-6.79492 82.97C207.923 155.613 371.237 182.643 645.369 154.471C917.554 126.501 1028.39 86.5703 1446.8 102.453" stroke="#A267A1" stroke-width="2" stroke-miterlimit="10"/>
<path d="M-6.79492 85.3738C211.643 162.559 373.935 170.956 648.274 144.738C914.108 119.333 1019.94 91.7839 1446.8 106.077" stroke="#AA6EA4" stroke-width="2" stroke-miterlimit="10"/>
<path d="M-6.79492 87.3932C215.361 169.116 376.628 158.829 651.182 134.616C910.652 111.732 1011.48 96.6054 1446.8 109.312" stroke="#B274A7" stroke-width="2" stroke-miterlimit="10"/>
<path d="M-6.79492 88.9466C219.079 175.212 379.313 146.188 654.086 124.033C907.191 103.624 1003.03 100.967 1446.8 112.086" stroke="#BA7AAA" stroke-width="2" stroke-miterlimit="10"/>
<path d="M-6.79492 90.1965C222.799 181.003 381.994 133.178 656.991 113.142C903.729 95.164 994.569 105.023 1446.8 114.553" stroke="#C380AC" stroke-width="2" stroke-miterlimit="10"/>
<path d="M-6.79492 91.4167C226.517 186.763 384.673 120.076 659.895 102.223C900.274 86.6302 986.117 109.049 1446.8 116.991" stroke="#CB87AF" stroke-width="2" stroke-miterlimit="10"/>
<path d="M-6.79492 95.03C230.235 194.915 387.353 109.294 662.798 93.6966C896.818 80.4427 977.659 115.467 1446.8 121.822" stroke="#D38DB2" stroke-width="2" stroke-miterlimit="10"/>
<path d="M-6.79492 102.353C233.955 206.779 390.038 102.148 665.708 88.8801C893.372 77.9205 969.206 125.596 1446.8 130.362" stroke="#DB93B5" stroke-width="2" stroke-miterlimit="10"/>
<path d="M-6.79492 110.603C237.673 219.569 392.73 95.8476 668.612 84.9895C889.935 76.2798 960.748 136.654 1446.8 139.829" stroke="#E499B7" stroke-width="2" stroke-miterlimit="10"/>
<path d="M-6.79492 119.811C241.391 233.318 395.432 90.4129 671.514 82.06C886.511 75.5535 952.296 148.668 1446.8 150.257" stroke="#ECA0BA" stroke-width="2" stroke-miterlimit="10"/>
<path d="M-6.79492 130.048C245.111 248.095 398.151 85.9128 674.419 80.1563C883.114 75.8074 943.838 161.711 1446.8 161.711" stroke="#F4A6BD" stroke-width="2" stroke-miterlimit="10"/>
<path d="M-6.79492 141.641C252.84 250.605 427.618 96.0677 694.508 90.233C910.699 85.1862 966.551 172.329 1446.8 172.329" stroke="#E49ABB" stroke-width="2" stroke-miterlimit="10"/>
<path d="M-6.79492 152.715C260.569 252.6 457.088 105.707 714.594 99.7944C938.289 94.047 989.261 182.432 1446.8 182.432" stroke="#D48DB9" stroke-width="2" stroke-miterlimit="10"/>
<path d="M-6.79492 163.308C268.299 254.113 486.581 115.327 734.678 108.874C965.899 102.859 1011.98 192.053 1446.8 192.053" stroke="#C581B7" stroke-width="2" stroke-miterlimit="10"/>
<path d="M-6.79492 173.082C276.028 254.806 516.053 123.74 754.766 117.133C993.499 110.527 1034.68 200.855 1446.8 200.855" stroke="#B574B5" stroke-width="2" stroke-miterlimit="10"/>
<path d="M-6.79492 181.643C283.757 254.288 545.526 130.906 774.855 124.181C1021.1 116.96 1057.4 208.445 1446.8 208.445" stroke="#A568B3" stroke-width="2" stroke-miterlimit="10"/>
<path d="M-6.79492 190.073C291.488 253.637 574.997 137.91 794.942 131.096C1048.69 123.236 1080.11 215.901 1446.8 215.901" stroke="#955CB1" stroke-width="2" stroke-miterlimit="10"/>
<path d="M-6.79492 198.461C299.216 252.943 604.464 144.844 815.025 137.97C1076.28 129.44 1102.82 223.316 1446.8 223.316" stroke="#864FB0" stroke-width="2" stroke-miterlimit="10"/>
<path d="M-6.79492 206.897C306.945 252.299 633.932 151.802 835.114 144.893C1103.87 135.661 1125.53 230.781 1446.8 230.781" stroke="#7643AE" stroke-width="2" stroke-miterlimit="10"/>
<path d="M-6.79492 215.475C314.676 251.797 663.394 158.879 855.203 151.956C1131.46 141.987 1148.24 238.387 1446.8 238.387" stroke="#6637AC" stroke-width="2" stroke-miterlimit="10"/>
<path d="M-6.79492 224.285C322.404 251.527 692.856 166.164 875.289 159.253C1159.04 148.501 1170.95 246.225 1446.8 246.225" stroke="#562AAA" stroke-width="2" stroke-miterlimit="10"/>
<path d="M-6.79492 233.419C330.133 251.581 722.318 173.755 895.373 166.872C1186.62 155.289 1193.66 254.387 1446.8 254.387" stroke="#471EA8" stroke-width="2" stroke-miterlimit="10"/>
<path d="M-6.79492 242.99C337.864 252.07 751.766 181.62 915.461 174.928C1214.17 162.195 1216.38 262.983 1446.8 262.983" stroke="#3711A6" stroke-width="2" stroke-miterlimit="10"/>
<path d="M-6.79492 253.026C345.593 253.026 781.234 190.22 935.548 183.452C1241.76 170.018 1239.09 272.05 1446.8 272.05" stroke="#2705A4" stroke-width="2" stroke-miterlimit="10"/>
<path d="M-6.79492 249.952C334.858 249.952 758.689 202.824 916.388 196.35C1223.83 183.501 1235.74 267.913 1446.8 267.913" stroke="#3005A6" stroke-width="2" stroke-miterlimit="10"/>
<path d="M-6.79492 245.452C324.124 245.452 736.142 214.004 897.225 207.823C1205.89 195.559 1232.39 262.353 1446.8 262.353" stroke="#3905A7" stroke-width="2" stroke-miterlimit="10"/>
<path d="M-6.79492 239.695C313.389 239.695 713.597 223.926 878.059 218.039C1187.96 206.359 1229.05 255.535 1446.8 255.535" stroke="#4205A9" stroke-width="2" stroke-miterlimit="10"/>
<path d="M-6.79492 232.901C302.655 232.901 691.052 232.81 858.898 227.219C1170.02 216.121 1225.7 247.68 1446.8 247.68" stroke="#4B05AB" stroke-width="2" stroke-miterlimit="10"/>
<path d="M-6.79492 228.745C291.923 228.745 668.505 244.332 839.736 239.035C1152.09 228.522 1222.36 242.462 1446.8 242.462" stroke="#5405AC" stroke-width="2" stroke-miterlimit="10"/>
<path d="M-6.79492 220.612C281.188 220.612 645.979 252.141 820.575 246.875C1134.19 237.417 1219.01 233.267 1446.8 233.267" stroke="#5D05AE" stroke-width="2" stroke-miterlimit="10"/>
<path d="M-6.79492 210.412C270.454 210.412 623.434 257.643 801.409 252.647C1116.26 243.81 1215.67 222.005 1446.8 222.005" stroke="#6605B0" stroke-width="2" stroke-miterlimit="10"/>
<path d="M-6.79492 199.535C259.719 199.535 600.889 262.464 782.246 257.743C1098.32 249.516 1212.32 210.066 1446.8 210.066" stroke="#6F05B1" stroke-width="2" stroke-miterlimit="10"/>
<path d="M-6.79492 188.15C248.985 188.15 578.342 266.774 763.086 262.333C1080.39 254.705 1208.98 197.621 1446.8 197.621" stroke="#7805B3" stroke-width="2" stroke-miterlimit="10"/>
<path d="M-6.79492 176.408C238.251 176.408 555.797 270.716 743.923 266.564C1062.45 259.526 1205.63 184.816 1446.8 184.816" stroke="#8105B5" stroke-width="2" stroke-miterlimit="10"/>
<path d="M-6.79492 164.449C227.516 164.449 533.252 274.443 724.763 270.577C1044.52 264.124 1202.29 171.798 1446.8 171.798" stroke="#8A05B6" stroke-width="2" stroke-miterlimit="10"/>
<path d="M-6.79492 152.418C216.782 152.418 510.701 278.087 705.594 274.519C1026.58 268.641 1198.94 158.704 1446.8 158.704" stroke="#9205B8" stroke-width="2" stroke-miterlimit="10"/>
<path d="M-6.79492 140.453C206.048 140.453 488.154 281.793 686.434 278.526C1008.64 273.214 1195.59 145.678 1446.8 145.678" stroke="#9B05B9" stroke-width="2" stroke-miterlimit="10"/>
<path d="M-6.79492 128.693C195.315 128.693 465.609 285.703 667.271 282.74C990.711 277.987 1192.25 132.857 1446.8 132.857" stroke="#A405BB" stroke-width="2" stroke-miterlimit="10"/>
<path d="M-6.79492 117.279C184.581 117.279 443.063 289.951 648.111 287.297C972.773 283.096 1188.9 120.382 1446.8 120.382" stroke="#AD05BD" stroke-width="2" stroke-miterlimit="10"/>
<path d="M-6.79492 106.349C173.846 106.349 420.51 294.404 628.948 292.344C954.825 288.254 1185.56 108.391 1446.8 108.391" stroke="#B605BE" stroke-width="2" stroke-miterlimit="10"/>
<path d="M-6.79492 96.0402C163.112 96.0402 397.965 299.773 609.782 298.006C936.893 294.504 1182.21 97.0207 1446.8 97.0207" stroke="#BF05C0" stroke-width="2" stroke-miterlimit="10"/>
<path d="M-6.79492 86.534C152.378 86.534 375.42 305.943 590.621 304.47C918.96 301.55 1178.87 86.4533 1446.8 86.4533" stroke="#C805C2" stroke-width="2" stroke-miterlimit="10"/>
<path d="M-6.79492 78.4128C141.643 78.4128 352.875 313.504 571.459 312.327C901.028 309.99 1175.52 77.2735 1446.8 77.2735" stroke="#D105C3" stroke-width="2" stroke-miterlimit="10"/>
<path d="M-6.79492 71.3373C130.909 71.3373 330.33 322.103 552.298 321.22C883.095 319.47 1172.18 69.1329 1446.8 69.1329" stroke="#DA05C5" stroke-width="2" stroke-miterlimit="10"/>
<path d="M1445.45 62.1771C1429.47 62.224 1413.4 63.1563 1397.26 64.8698C1386.38 66.0196 1375.46 67.5261 1364.5 69.3594C1356.06 70.7696 1347.61 72.3698 1339.13 74.1498C1332.24 75.5938 1325.33 77.1537 1318.41 78.8295C1312.57 80.237 1306.72 81.724 1300.87 83.2865C1295.8 84.6368 1290.72 86.0404 1285.63 87.504C1281.11 88.793 1276.58 90.1303 1272.05 91.5105C1267.96 92.7435 1263.88 94.017 1259.78 95.3204C1256.1 96.4896 1252.41 97.6823 1248.71 98.9011C1245.47 99.9688 1242.23 101.057 1238.98 102.165C1236.29 103.078 1233.61 104.005 1230.91 104.943C1228.76 105.689 1226.61 106.444 1224.46 107.206C1222.67 107.841 1220.86 108.483 1219.06 109.134C1217.33 109.753 1215.61 110.378 1213.88 111.005C1210.28 112.311 1206.69 113.642 1203.08 114.984C1196.87 117.302 1190.64 119.671 1184.41 122.089C1177.97 124.583 1171.52 127.129 1165.05 129.719C1158.42 132.375 1151.78 135.079 1145.11 137.823C1138.28 140.641 1131.43 143.499 1124.56 146.397C1119.35 148.594 1114.13 150.814 1108.91 153.053C1104.62 154.888 1100.33 156.732 1096.04 158.589C1092.58 160.083 1089.12 161.585 1085.65 163.092C1083.26 164.137 1080.86 165.182 1078.46 166.229C1077.19 166.784 1075.92 167.339 1074.65 167.892C1073.87 168.238 1073.07 168.585 1072.29 168.93C1071.82 169.134 1071.35 169.34 1070.87 169.548C1070.51 169.706 1070.15 169.863 1069.79 170.021C1069.28 170.25 1068.76 170.475 1068.25 170.703C1067.27 171.126 1066.31 171.553 1065.34 171.979C1063.6 172.738 1061.87 173.501 1060.13 174.267C1057.37 175.482 1054.6 176.702 1051.83 177.925C1047.62 179.781 1043.39 181.648 1039.15 183.52C1030.12 187.507 1021.07 191.509 1012 195.517C1003.76 199.154 995.492 202.794 987.206 206.422C979.708 209.71 972.197 212.987 964.661 216.249C958.871 218.758 953.074 221.257 947.265 223.742C946.2 224.198 945.135 224.651 944.074 225.105C936.403 228.383 928.708 231.634 921.006 234.855C919.434 235.51 917.871 236.161 916.301 236.816C910.065 239.406 903.816 241.978 897.557 244.525C893.228 246.284 888.893 248.031 884.554 249.763C884.471 249.797 884.391 249.831 884.308 249.861C880.56 251.359 876.806 252.846 873.053 254.324C872.948 254.362 872.846 254.401 872.751 254.441C869.779 255.604 866.813 256.763 863.837 257.911C863.741 257.952 863.649 257.988 863.554 258.022C860.951 259.03 858.345 260.034 855.729 261.029C854.904 261.344 854.074 261.66 853.243 261.977C852.019 262.443 850.794 262.906 849.566 263.37C848.603 263.733 847.637 264.094 846.671 264.457C846.114 264.667 845.569 264.874 845.012 265.079C844.056 265.436 843.111 265.79 842.154 266.147C842.123 266.156 842.093 266.171 842.059 266.18C841.742 266.3 841.416 266.423 841.099 266.54C741.246 303.62 638.625 330.921 533.136 331.293C445.224 331.52 363.062 291.113 288.002 241.74C287.653 241.512 287.31 241.284 286.961 241.059C286.052 240.457 285.143 239.855 284.239 239.251C282.821 238.314 281.409 237.374 280.001 236.427C279.735 236.253 279.474 236.074 279.214 235.9C277.652 234.852 276.094 233.801 274.541 232.746C274.14 232.474 273.744 232.204 273.343 231.934C272.651 231.464 271.959 230.99 271.268 230.52C269.706 229.451 268.148 228.38 266.591 227.309C265.721 226.707 264.849 226.105 263.983 225.505C261.726 223.94 259.472 222.371 257.228 220.796C257.087 220.699 256.946 220.602 256.811 220.504C254.818 219.107 252.836 217.706 250.853 216.302C249.266 215.177 247.686 214.052 246.109 212.927C245.655 212.602 245.196 212.275 244.734 211.949C242.738 210.516 240.741 209.081 238.744 207.645C237.388 206.663 236.031 205.68 234.675 204.699C234.038 204.234 233.398 203.772 232.761 203.309C230.715 201.824 228.679 200.339 226.652 198.854C225.308 197.878 223.973 196.897 222.638 195.915C221.439 195.033 220.239 194.152 219.039 193.27C216.129 191.126 213.231 188.984 210.349 186.844C210.266 186.788 210.189 186.731 210.113 186.669C207.124 184.457 204.148 182.246 201.189 180.043C199.854 179.046 198.514 178.052 197.184 177.057C195.249 175.617 193.32 174.18 191.4 172.745C188.904 170.884 186.424 169.034 183.956 167.19C182.246 165.918 180.544 164.647 178.845 163.382C176.046 161.293 173.254 159.217 170.484 157.159C169.208 156.207 167.931 155.264 166.658 154.32C163.354 151.871 160.071 149.447 156.803 147.046C156.133 146.555 155.468 146.065 154.798 145.574C150.93 142.737 147.09 139.936 143.274 137.181C143.13 137.077 142.984 136.974 142.843 136.869C140.991 135.533 139.149 134.21 137.316 132.896C136.697 132.456 136.088 132.02 135.473 131.582C134.835 131.126 134.192 130.673 133.553 130.219C132.692 129.604 131.831 128.994 130.965 128.385C130.211 127.852 129.458 127.32 128.702 126.79C128.224 126.454 127.749 126.121 127.271 125.787C125.651 124.651 124.031 123.522 122.421 122.41C120.471 121.06 118.532 119.731 116.603 118.418C115.824 117.883 115.044 117.356 114.266 116.828C112.8 115.839 111.339 114.857 109.89 113.891C107.263 112.137 104.651 110.421 102.058 108.745C101.852 108.607 101.644 108.473 101.439 108.341C98.4806 106.431 95.5444 104.566 92.6288 102.753C91.3519 101.961 90.0788 101.177 88.8169 100.405C86.055 98.7227 83.3081 97.0873 80.5856 95.5013C74.9756 92.2331 69.4425 89.1797 63.9881 86.3698C63.8381 86.293 63.6919 86.2201 63.5475 86.1407C59.6494 84.1407 55.7944 82.2631 51.9788 80.517C31.6763 71.2331 12.51 65.7097 -5.44687 65.4506C-5.89687 65.4402 -6.34687 65.4362 -6.79688 65.4362" stroke="#E305C7" stroke-width="2" stroke-miterlimit="10"/>
<path d="M-6.79492 60.8503C109.442 60.8503 285.24 342.977 513.969 342.68C847.228 342.096 1165.48 56.5234 1446.8 56.5234" stroke="#EC05C8" stroke-width="2" stroke-miterlimit="10"/>
<path d="M-6.79492 57.7201C98.7076 57.7201 262.695 355.523 494.809 355.523C829.296 355.523 1162.14 52.3334 1446.8 52.3334" stroke="#F505CA" stroke-width="2" stroke-miterlimit="10"/>
<rect width="1440" height="356" fill="url(#paint0_linear_344_6165)" fill-opacity="0.75"/>
</g>
<defs>
<linearGradient id="paint0_linear_344_6165" x1="1440" y1="178" x2="0" y2="178" gradientUnits="userSpaceOnUse">
<stop stop-color="#020621"/>
<stop offset="1" stop-color="#020A2A"/>
</linearGradient>
<clipPath id="clip0_344_6165">
<rect width="1440" height="356" fill="white"/>
</clipPath>
</defs>
</svg>
